PathFileType	4	(X/Y/Z)	D:\TRACE\v60_Jaco2_6-2-23\JustBodyDRS_Motion3_8-platform.trc
DataRate	CameraRate	NumFrames	NumMarkers	Units	OrigDataRate	OrigDataStartFrame	OrigNumFrames
100.00	100.00	      67	5	mm	100.00	3501	      7000
Frame#	Time	Left_Front			Right_Front			Left_Aft			Right_Aft			Post			
		X1	Y1	Z1	X2	Y2	Z2	X3	Y3	Z3	X4	Y4	Z4	X5	Y5	Z5	

3501	35.000	-747.41528	-3.15972	-653.49268	822.86432	-4.37135	-630.53363	-678.85083	19.02149	480.42194	735.48108	19.14203	586.18536	48.39203	1288.12512	-991.33008	
3502	35.010	-747.46045	-2.88022	-653.30328	822.86694	-4.25207	-630.49615	-678.89099	19.09196	480.52963	735.45782	19.06716	586.18109	48.39120	1288.27649	-991.36591	
3503	35.020	-747.54065	-2.66603	-653.23615	822.84955	-4.12795	-630.44165	-678.96722	19.14363	480.55280	735.48486	18.98779	586.24323	48.39064	1288.67627	-991.22009	
3504	35.030	-747.56763	-2.58393	-653.20282	822.88196	-4.08407	-630.43738	-679.08459	19.09611	480.53287	735.40674	18.79264	586.20013	48.31789	1288.97925	-991.07654	
3505	35.040	-747.54095	-2.59090	-653.21747	822.89294	-4.13173	-630.42596	-679.21686	18.99259	480.47995	735.29907	18.71093	586.20355	48.18211	1289.06055	-990.75470	
3506	35.050	-747.83057	-2.57396	-653.12646	822.72729	-3.84099	-630.40784	-679.29089	18.96337	480.57285	735.19336	18.50192	586.18536	48.15387	1289.21362	-990.55255	
3507	35.060	-747.76398	-2.50229	-653.19495	822.91064	-3.66641	-630.64899	-679.20911	18.76342	480.67581	735.20795	18.37795	586.29144	48.18007	1289.59656	-990.08783	
3508	35.070	-747.62177	-2.09716	-653.08984	823.14734	-3.27852	-630.46057	-679.10162	18.55075	480.80823	735.23895	18.28684	586.35120	47.74795	1289.74512	-989.53857	
3509	35.080	-747.54510	-1.84869	-653.14868	822.88910	-2.99115	-630.17810	-679.05524	18.37645	480.89255	735.30951	18.11356	586.41687	48.04038	1290.36633	-989.05634	
3510	35.090	-747.67480	-1.48130	-653.13654	822.85431	-2.65819	-630.17999	-679.06018	18.11590	480.97009	735.23645	17.74657	586.38361	48.07804	1290.80457	-988.19592	
3511	35.100	-747.78149	-0.97814	-652.90729	822.82379	-2.39984	-630.17755	-679.11359	17.78673	480.98093	735.15137	17.50306	586.47327	48.09063	1291.32910	-987.19592	
3512	35.110	-747.71667	-0.47753	-652.68359	822.75226	-2.19016	-630.10303	-679.14575	17.62010	481.01578	735.20398	17.31280	586.60242	47.72066	1291.79651	-986.52338	
3513	35.120	-747.71643	-0.00638	-652.44727	822.80707	-1.61049	-629.94238	-679.13708	17.44438	481.04300	735.28674	16.89164	586.72333	47.76688	1292.34668	-985.68408	
3514	35.130	-748.17377	0.49326	-652.07922	822.99048	-1.32876	-630.18158	-679.13501	17.15495	481.03366	735.24438	16.56654	586.87964	48.09209	1292.90039	-984.52777	
3515	35.140	-748.40698	0.80950	-652.16565	822.84784	-1.03855	-630.15497	-679.23285	16.83105	481.11020	735.17285	16.30738	586.86456	47.95871	1293.58350	-983.66840	
3516	35.150	-748.71112	1.08894	-652.22321	822.47656	-0.69269	-629.76727	-679.45789	16.51838	481.21017	734.90680	15.93770	586.84113	47.51329	1294.19202	-982.80945	
3517	35.160	-748.50079	1.18647	-652.41486	822.25452	-0.35544	-629.62628	-679.64648	16.31497	481.33145	734.82892	15.64106	586.98486	47.45532	1294.76099	-981.89539	
3518	35.170	-748.49304	1.61683	-652.28931	822.33148	0.13206	-629.52533	-679.71417	16.14311	481.48886	734.81464	15.45701	587.11804	47.82179	1295.03735	-980.80261	
3519	35.180	-748.47888	2.14135	-652.20300	822.17249	0.58246	-629.46539	-679.77167	15.86696	481.58826	734.70831	15.23175	587.23718	47.75436	1295.87219	-979.99634	
3520	35.190	-748.50360	2.61112	-652.23511	822.11267	0.92622	-629.38770	-679.88837	15.61391	481.69141	734.71075	14.89089	587.37689	47.35774	1296.61279	-979.39117	
3521	35.200	-748.62793	2.96241	-652.24164	822.02185	1.39509	-629.34222	-679.95313	15.29497	481.74493	734.51917	14.46652	587.54645	47.13563	1297.04443	-978.70496	
3522	35.210	-748.71588	3.24215	-652.16327	821.83557	1.73551	-629.22638	-680.15363	14.99960	481.91122	734.31079	14.12300	587.60217	46.93085	1297.62988	-977.92194	
3523	35.220	-748.74512	3.67779	-652.18781	821.68805	2.28244	-629.12964	-680.25989	14.75688	482.04684	734.06940	13.59081	587.67279	47.13104	1298.43127	-977.06799	
3524	35.230	-749.02747	4.44948	-652.20258	821.53571	2.76424	-628.99994	-680.16394	14.37392	482.23019	733.89392	13.16158	587.81299	46.82795	1299.01367	-976.23944	
3525	35.240	-749.12909	4.93874	-651.90118	821.64307	3.44904	-628.79718	-680.45337	14.09706	482.23376	733.76379	12.72023	587.82239	46.59207	1299.91785	-975.33392	
3526	35.250	-748.76379	5.45552	-651.35754	821.47577	3.83600	-628.85730	-680.52112	13.70708	482.33658	733.87067	12.50882	587.96960	46.16735	1300.75317	-974.28278	
3527	35.260	-749.22803	5.68227	-652.12231	821.18268	4.26927	-628.69238	-680.79205	13.23074	482.40372	733.65613	12.04985	588.17249	46.28068	1301.61694	-972.99664	
3528	35.270	-749.36804	5.99763	-651.95459	821.02582	4.90790	-628.45142	-680.86041	12.84186	482.61917	733.46222	11.56763	588.51410	45.99596	1302.04309	-971.63153	
3529	35.280	-749.75031	6.93124	-651.28833	820.98773	5.57571	-628.33551	-680.96655	12.41856	482.84018	733.50287	11.02513	588.48218	46.11887	1303.14221	-970.16760	
3530	35.290	-749.89020	7.48083	-650.93134	820.81903	6.07526	-628.35266	-681.17584	12.05772	483.08765	733.25702	10.69987	588.58508	45.91989	1303.95923	-968.62762	
3531	35.300	-750.03979	8.24370	-650.74298	820.59979	6.67940	-628.15344	-681.40210	11.80446	483.20660	732.90375	10.13461	588.68121	45.51009	1304.98193	-967.27686	
3532	35.310	-750.36969	9.12356	-650.93561	820.47882	7.32106	-627.91333	-681.69226	11.50988	483.33719	732.74890	9.72256	588.83490	45.33010	1305.81946	-965.68085	
3533	35.320	-750.30920	9.38573	-650.70001	820.22693	7.67767	-627.87067	-681.76624	11.13192	483.46793	732.53253	9.14042	588.94775	45.08747	1306.72046	-964.27118	
3534	35.330	-750.45837	9.95209	-650.51306	820.01794	8.26661	-627.81183	-682.01666	10.65961	483.60529	732.47888	8.62621	589.25238	44.77604	1307.36194	-962.83661	
3535	35.340	-750.58771	10.42811	-650.08307	819.89349	8.98371	-627.54834	-682.33734	10.19693	483.73666	732.31500	8.26424	589.41003	44.90229	1308.36560	-961.47070	
3536	35.350	-750.89075	10.91988	-650.00604	819.66754	9.55199	-627.51147	-682.40515	9.69684	483.93475	732.23248	8.00269	589.47412	44.62843	1309.27551	-960.30963	
3537	35.360	-751.10114	11.42440	-650.01428	819.34467	10.19502	-627.42004	-682.48962	9.26662	483.93460	731.85321	7.48153	589.56494	44.28288	1310.24304	-959.26880	
3538	35.370	-751.48853	12.30134	-650.04694	819.12634	10.74691	-627.15839	-682.74408	8.86524	484.07428	731.59186	6.93787	589.76752	44.05802	1310.99231	-958.08789	
3539	35.380	-751.52240	12.92649	-650.05981	818.81848	11.39875	-627.00952	-683.01935	8.47959	484.22583	731.39148	6.56572	590.11993	43.93712	1311.90601	-956.94220	
3540	35.390	-751.89734	13.82293	-649.92957	818.49359	12.12328	-626.86261	-683.33588	8.07511	484.36545	731.35956	6.41001	590.38824	43.39585	1312.62610	-955.93884	
3541	35.400	-752.44067	14.20921	-649.67792	818.43994	12.48557	-627.18469	-683.67230	7.83680	484.33688	731.31622	5.40471	589.96594	42.61631	1313.58179	-954.55621	
3542	35.410	-752.92145	14.83722	-649.21277	818.08716	13.25085	-626.61804	-683.85504	7.36399	484.51474	730.92834	4.80183	590.16663	42.79893	1314.49329	-953.19519	
3543	35.420	-752.89294	15.14694	-649.05127	817.81287	13.98365	-626.38574	-684.06683	6.67706	484.84274	730.44855	4.04980	590.31012	42.50400	1315.25012	-951.83386	
3544	35.430	-753.17902	15.59057	-648.94318	817.50879	14.56535	-626.18909	-684.45953	6.32983	484.77756	730.36157	3.70037	590.34265	42.18177	1316.10071	-950.59155	
3545	35.440	-753.35333	17.05008	-649.14197	817.24390	15.06889	-625.98376	-684.81653	5.98344	484.89355	730.12286	3.25843	590.52722	42.11601	1317.31189	-948.99512	
3546	35.450	-753.47064	17.48986	-648.73492	816.99170	15.67298	-625.89441	-685.07208	5.54087	485.18262	729.72742	2.68236	590.77246	41.32822	1318.34448	-947.31824	
3547	35.460	-753.75568	17.82708	-648.48364	816.67664	16.66863	-625.61993	-685.27618	5.14482	485.36719	729.19110	1.85563	590.90442	41.21976	1319.29724	-945.81519	
3548	35.470	-754.29333	18.42713	-648.20172	816.38263	17.35336	-625.63666	-685.73901	4.93988	485.35870	728.98126	1.40405	591.06781	40.78853	1320.24023	-944.01318	
3549	35.480	-754.95160	19.28340	-648.03107	815.99048	17.83836	-625.50262	-686.23621	4.38004	485.50781	728.80664	1.06625	591.19159	40.67673	1321.12415	-942.54846	
3550	35.490	-755.13367	19.83424	-648.16803	815.56854	18.44718	-625.30322	-686.27100	3.68222	485.58810	728.44672	0.64131	591.33185	40.45919	1322.33704	-940.55060	
3551	35.500	-755.68927	20.74318	-648.12958	815.13440	19.08007	-625.17133	-686.96313	3.49707	485.81583	727.87048	-0.18569	591.53711	39.88330	1323.01233	-939.33148	
3552	35.510	-756.01172	21.37953	-648.06219	814.88348	19.59431	-625.39032	-687.37616	3.10341	485.89447	727.72473	-0.61826	591.74957	39.13806	1324.04651	-937.51666	
3553	35.520	-756.21625	21.86902	-647.90936	814.41278	20.41103	-624.86102	-687.63855	2.81248	486.01804	727.50574	-1.05913	591.88275	39.21101	1325.00610	-936.23053	
3554	35.530	-756.59283	22.45792	-647.57703	814.00348	21.02315	-624.59778	-688.09760	2.40705	486.35605	727.10883	-1.66001	591.97479	38.60745	1325.74365	-934.95880	
3555	35.540	-756.97156	22.92579	-647.22095	813.63287	21.67564	-624.43304	-688.63300	1.86134	486.37357	726.46515	-2.28762	591.99445	38.24704	1326.91675	-933.80487	
3556	35.550	-757.47589	23.63588	-646.91907	813.26056	22.20100	-624.24109	-688.81085	1.32215	486.64185	726.11285	-2.70537	592.12695	37.98689	1327.62598	-932.53455	
3557	35.560	-757.91675	23.89729	-646.73047	812.87958	22.80268	-624.19434	-689.16724	0.46454	486.76917	725.72772	-3.21245	592.41174	37.09101	1328.47864	-931.14703	
3558	35.570	-758.49500	25.02200	-646.52631	812.40820	23.46534	-623.95642	-689.38348	-0.05657	487.03513	725.38055	-3.55842	592.39978	36.78709	1329.53003	-930.27698	
3559	35.580	-758.81970	25.76604	-646.81866	811.94812	24.15527	-623.92163	-689.84711	-0.42537	487.10852	724.64087	-4.24969	592.61871	36.73309	1330.44189	-929.24670	
3560	35.590	-759.00366	26.23919	-646.89709	811.46179	24.75442	-623.75507	-690.60706	-0.27207	487.03510	724.30707	-4.72152	592.81714	36.16972	1331.38660	-927.84155	
3561	35.600	-759.48572	26.91765	-646.64056	811.04559	25.33548	-623.49170	-691.08508	-0.74693	487.19339	724.07642	-5.23446	592.91980	35.72260	1332.14844	-926.37292	
3562	35.610	-760.18402	27.55656	-646.11719	810.61810	25.87946	-623.33893	-691.55078	-1.15677	487.25085	723.46954	-5.87227	592.84528	34.77156	1332.92554	-924.85522	
3563	35.620	-760.57062	27.95515	-645.91980	810.13147	26.62875	-623.10828	-691.93127	-1.61182	487.29837	723.13068	-6.15171	593.02802	34.46752	1333.83447	-923.37067	
3564	35.630	-761.00891	28.51500	-645.71393	809.75214	27.12078	-623.08002	-692.25641	-1.94240	487.48557	722.42761	-6.73660	593.26886	34.22933	1334.62488	-921.75500	
3565	35.640	-761.34332	29.05204	-645.80536	809.24036	27.68545	-622.93066	-692.87280	-2.39547	487.72607	722.28326	-7.07292	593.38867	33.73921	1335.54822	-920.32397	
3566	35.650	-761.87708	29.69395	-645.96484	808.71753	28.28470	-622.63770	-693.39606	-2.77635	487.85242	721.65680	-7.62906	593.52155	32.78032	1336.36499	-918.65698	
3567	35.660	-762.56641	30.36534	-645.75897	808.08246	28.70236	-622.66394	-694.00641	-3.17648	488.02863	720.87128	-8.58360	593.02698	32.79626	1336.85327	-917.40985	
